# 3ds Max Wavefront OBJ Exporter v0.97b - (c)2007 guruware
# 创建的文件:08.04.2020 13:25:57

mtllib gold.mtl

#
# object Hedra001
#

v  3.56042 59.26427 -0.33734
v  17.91460 21.68453 22.88821
v  17.91460 21.68453 -23.56290
v  -5.31096 7.33035 14.01684
v  -19.66514 44.91009 -9.20872
v  3.56042 30.55590 28.37103
v  26.78597 44.91009 -9.20872
v  12.43179 7.33035 14.01684
v  -10.79377 21.68453 -23.56290
v  -10.79377 21.68453 22.88821
v  12.43179 7.33035 -14.69153
v  26.78597 44.91009 8.53403
v  3.56042 30.55590 -29.04571
v  -19.66514 44.91009 8.53403
v  -5.31096 7.33035 -14.69153
v  32.26878 30.55590 -0.33734
v  -5.31096 53.78146 14.01684
v  -5.31096 53.78146 -14.69153
v  26.78597 16.20172 8.53403
v  -19.66514 16.20172 8.53403
v  17.91460 39.42728 22.88821
v  17.91460 39.42728 -23.56290
v  -19.66514 16.20172 -9.20872
v  3.56042 1.84753 -0.33734
v  12.43179 53.78146 -14.69153
v  -10.79377 39.42728 22.88821
v  -10.79377 39.42728 -23.56290
v  26.78597 16.20172 -9.20872
v  12.43179 53.78146 14.01684
v  -25.14795 30.55590 -0.33734
v  3.56042 38.49070 -13.17612
v  3.56042 38.49070 12.50143
v  11.49521 17.71713 -0.33734
v  -9.27836 30.55590 -8.27214
v  11.49521 43.39468 -0.33734
v  3.56042 22.62111 12.50143
v  3.56042 22.62111 -13.17612
v  -4.37438 43.39468 -0.33734
v  16.39919 30.55590 7.59746
v  -4.37438 17.71713 -0.33734
v  16.39919 30.55590 -8.27214
v  -9.27836 30.55590 7.59746
# 42 vertices

vn 0.93417 0.35682 -0.00000
vn -0.57735 -0.57735 -0.57735
vn 0.00000 0.93417 0.35682
vn 0.57735 -0.57735 -0.57735
vn -0.93417 0.35682 -0.00000
vn 0.57735 -0.57735 0.57735
vn 0.00000 0.93417 -0.35682
vn -0.57735 -0.57735 0.57735
vn 0.35682 0.00000 0.93417
vn 0.35682 0.00000 -0.93417
vn 0.00000 -0.93417 -0.35682
vn -0.57735 0.57735 0.57735
vn -0.57735 0.57735 -0.57735
vn 0.93417 -0.35682 -0.00000
vn 0.57735 0.57735 0.57735
vn -0.93417 -0.35682 -0.00000
vn 0.00000 -0.93417 0.35682
vn 0.57735 0.57735 -0.57735
vn -0.35682 0.00000 -0.93417
vn -0.35682 0.00000 0.93417
vn 0.00000 0.52573 -0.85065
vn -0.00000 0.52573 0.85065
vn 0.00000 0.52573 0.85065
vn 0.52573 -0.85065 -0.00000
vn 0.52573 -0.85065 0.00000
vn -0.85065 0.00000 -0.52573
vn -0.85065 -0.00000 -0.52573
vn 0.52573 0.85065 -0.00000
vn 0.00000 -0.52573 0.85065
vn -0.00000 -0.52573 -0.85065
vn 0.00000 -0.52573 -0.85065
vn -0.52573 0.85065 -0.00000
vn -0.52573 0.85065 0.00000
vn 0.85065 0.00000 0.52573
vn 0.85065 -0.00000 0.52573
vn -0.52573 -0.85065 -0.00000
vn 0.85065 0.00000 -0.52573
vn -0.85065 0.00000 0.52573
# 38 vertex normals

vt 0.00000 0.50000 0.00000
vt -0.40451 -0.15451 0.25000
vt 0.40451 -0.15451 0.25000
vt -0.25000 -0.40451 -0.15451
vt 0.15451 0.25000 -0.40451
vt -0.40451 0.15451 0.25000
vt -0.00000 -0.50000 -0.00000
vt 0.40451 0.15451 0.25000
vt 0.15451 0.25000 0.40451
vt -0.25000 -0.40451 0.15451
vt 0.40451 -0.15451 -0.25000
vt -0.40451 -0.15451 -0.25000
vt 0.25000 -0.40451 0.15451
vt -0.15451 0.25000 0.40451
vt -0.15451 0.25000 -0.40451
vt 0.25000 -0.40451 -0.15451
vt 0.00000 0.50000 -0.00000
vt -0.15451 -0.25000 -0.40451
vt 0.25000 0.40451 -0.15451
vt 0.00000 -0.50000 0.00000
vt -0.15451 -0.25000 0.40451
vt 0.25000 0.40451 0.15451
vt -0.40451 0.15451 -0.25000
vt 0.40451 0.15451 -0.25000
vt -0.25000 0.40451 0.15451
vt 0.15451 -0.25000 0.40451
vt 0.13820 0.00000 0.22361
vt 0.50000 0.00000 0.00000
vt 0.13820 -0.00000 -0.22361
vt 0.50000 -0.00000 0.00000
vt 0.13820 -0.00000 0.22361
vt -0.13820 -0.00000 -0.22361
vt -0.25000 0.40451 -0.15451
vt 0.15451 -0.25000 -0.40451
vt -0.50000 0.00000 0.00000
vt -0.13820 0.00000 0.22361
vt -0.13820 -0.00000 0.22361
vt -0.50000 -0.00000 -0.00000
vt -0.13820 0.00000 -0.22361
# 39 texture coords

o Hedra001
g Hedra001
usemtl 01___Default
s off
f 1/1/1 2/2/1 3/3/1 
f 3/3/2 4/4/2 5/5/2 
f 5/6/3 6/7/3 7/8/3 
f 7/9/4 8/10/4 9/11/4 
f 9/11/5 10/12/5 1/1/5 
f 10/12/6 11/13/6 12/14/6 
f 12/3/7 13/1/7 14/2/7 
f 14/15/8 15/16/8 2/2/8 
f 16/17/9 17/11/9 4/12/9 
f 15/2/10 18/3/10 16/17/10 
f 13/1/11 19/11/11 20/12/11 
f 20/18/12 21/6/12 18/19/12 
f 22/9/13 23/10/13 17/11/13 
f 21/6/14 24/20/14 22/8/14 
f 19/21/15 25/22/15 26/23/15 
f 26/23/16 27/24/16 24/20/16 
f 28/24/17 6/7/17 23/23/17 
f 27/24/18 29/25/18 28/26/18 
f 25/8/19 11/6/19 30/20/19 
f 30/20/20 8/23/20 29/24/20 
f 31/27/21 3/14/21 5/13/21 
f 31/27/21 5/13/21 7/22/21 
f 31/27/21 7/22/21 9/21/21 
f 31/27/21 9/21/21 1/28/21 
f 31/27/21 1/28/21 3/14/21 
f 32/29/22 10/18/22 12/19/22 
f 32/29/23 12/19/23 14/16/23 
f 32/29/23 14/16/23 2/15/23 
f 32/29/23 2/15/23 1/28/23 
f 32/29/22 1/28/22 10/18/22 
f 33/29/24 2/16/24 15/15/24 
f 33/29/24 15/15/24 16/30/24 
f 33/29/25 16/30/25 4/18/25 
f 33/29/25 4/18/25 3/19/25 
f 33/29/24 3/19/24 2/16/24 
f 34/29/26 14/15/26 13/28/26 
f 34/29/27 13/28/27 20/18/27 
f 34/29/27 20/18/27 18/19/27 
f 34/29/26 18/19/26 15/16/26 
f 34/29/26 15/16/26 14/15/26 
f 35/31/28 18/14/28 21/13/28 
f 35/31/28 21/13/28 22/22/28 
f 35/31/28 22/22/28 17/21/28 
f 35/31/28 17/21/28 16/30/28 
f 35/31/28 16/30/28 18/14/28 
f 36/32/29 20/4/29 19/33/29 
f 36/32/29 19/33/29 26/34/29 
f 36/32/29 26/34/29 24/35/29 
f 36/32/29 24/35/29 21/5/29 
f 36/32/29 21/5/29 20/4/29 
f 37/36/30 24/35/30 27/26/30 
f 37/36/30 27/26/30 28/25/30 
f 37/36/31 28/25/31 23/10/31 
f 37/36/31 23/10/31 22/9/31 
f 37/36/31 22/9/31 24/35/31 
f 38/37/32 26/10/32 25/9/32 
f 38/37/32 25/9/32 30/35/32 
f 38/37/33 30/35/33 29/26/33 
f 38/37/33 29/26/33 27/25/33 
f 38/37/32 27/25/32 26/10/32 
f 39/37/34 29/25/34 8/10/34 
f 39/37/34 8/10/34 7/9/34 
f 39/37/34 7/9/34 6/38/34 
f 39/37/35 6/38/35 28/26/35 
f 39/37/35 28/26/35 29/25/35 
f 40/39/36 30/35/36 11/5/36 
f 40/39/36 11/5/36 10/4/36 
f 40/39/36 10/4/36 9/33/36 
f 40/39/36 9/33/36 8/34/36 
f 40/39/36 8/34/36 30/35/36 
f 41/27/37 11/13/37 25/22/37 
f 41/27/37 25/22/37 19/21/37 
f 41/27/37 19/21/37 13/28/37 
f 41/27/37 13/28/37 12/14/37 
f 41/27/37 12/14/37 11/13/37 
f 42/32/38 5/5/38 4/4/38 
f 42/32/38 4/4/38 17/33/38 
f 42/32/38 17/33/38 23/34/38 
f 42/32/38 23/34/38 6/38/38 
f 42/32/38 6/38/38 5/5/38 
# 80 faces

